<!-- icon666.com - MILLIONS vector ICONS FREE --><svg id="Layer_1" enable-background="new 0 0 32 32" viewBox="0 0 32 32" xmlns="http://www.w3.org/2000/svg"><path d="m16 30c-7.7 0-14-6.3-14-14s6.3-14 14-14 14 6.3 14 14-6.3 14-14 14zm0-26c-6.6 0-12 5.4-12 12s5.4 12 12 12 12-5.4 12-12-5.4-12-12-12z" fill="#000000" style="fill: rgb(65, 203, 26);"></path><path d="m14 21c-.3 0-.6-.1-.8-.4l-4-5c-.3-.4-.3-1.1.2-1.4s1.1-.3 1.4.2l3.3 4.1 7.2-8.1c.4-.4 1-.5 1.4-.1s.5 1 .1 1.4l-8 9c-.2.2-.5.3-.8.3z" fill="#000000" style="fill: rgb(65, 203, 26);"></path></svg>